<?xml version="1.0" encoding="iso-8859-1"?>
<!-- Generator: Adobe Illustrator 29.1.0, SVG Export Plug-In . SVG Version: 9.03 Build 55587)  -->
<svg version="1.1" id="Layer_1" xmlns="http://www.w3.org/2000/svg" xmlns:xlink="http://www.w3.org/1999/xlink" x="0px" y="0px"
	 width="275.8px" height="63.196px" viewBox="0 0 275.8 63.196" enable-background="new 0 0 275.8 63.196" xml:space="preserve">
<g>
	<g>
		<path fill="#F6F6F6" d="M20.955,61.694c-5.925,0-10.609-1.628-14.053-4.884c-3.442-3.256-5.164-7.66-5.164-13.212h10.009
			c0,2.882,0.813,5.165,2.442,6.846c1.628,1.681,3.883,2.522,6.766,2.522c2.829,0,5.071-0.827,6.727-2.482
			c1.653-1.654,2.481-3.924,2.481-6.807V2.44h10.01v41.237c0,5.553-1.722,9.943-5.165,13.172
			C31.564,60.08,26.881,61.694,20.955,61.694z"/>
		<path fill="#F6F6F6" d="M69.958,61.694c-5.713,0-10.183-1.562-13.412-4.684c-3.23-3.123-4.844-7.379-4.844-12.772V2.44h10.089
			v41.718c0,2.776,0.692,4.938,2.082,6.486c1.387,1.549,3.415,2.322,6.085,2.322c2.615,0,4.631-0.773,6.046-2.322
			c1.413-1.547,2.121-3.709,2.121-6.486V2.44h10.089v41.798c0,5.393-1.601,9.649-4.804,12.772
			C80.207,60.133,75.724,61.694,69.958,61.694z"/>
		<path fill="#F6F6F6" d="M99.504,60.893V2.44h17.375c3.95,0,7.379,0.761,10.289,2.282c2.909,1.521,5.165,3.644,6.767,6.366
			c1.602,2.723,2.401,5.925,2.401,9.609v21.86c0,3.683-0.8,6.9-2.401,9.648c-1.602,2.75-3.857,4.885-6.767,6.406
			c-2.91,1.521-6.339,2.282-10.289,2.282H99.504z M109.513,51.925h7.366c2.883,0,5.177-0.841,6.886-2.522
			c1.708-1.682,2.562-3.964,2.562-6.846v-21.86c0-2.829-0.854-5.084-2.562-6.766c-1.709-1.682-4.003-2.522-6.886-2.522h-7.366
			V51.925z"/>
		<path fill="#F6F6F6" d="M165.001,61.694c-3.791,0-7.074-0.708-9.849-2.122c-2.776-1.414-4.925-3.416-6.446-6.005
			c-1.521-2.588-2.281-5.645-2.281-9.168V18.935c0-3.523,0.76-6.579,2.281-9.168c1.521-2.588,3.67-4.59,6.446-6.005
			c2.774-1.414,6.058-2.122,9.849-2.122c3.735,0,6.992,0.708,9.769,2.122c2.775,1.415,4.938,3.417,6.486,6.005
			c1.547,2.59,2.321,5.646,2.321,9.168h-10.089c0-2.723-0.734-4.817-2.202-6.286c-1.469-1.468-3.562-2.202-6.285-2.202
			s-4.832,0.721-6.325,2.162c-1.495,1.441-2.242,3.523-2.242,6.246v25.543c0,2.723,0.747,4.832,2.242,6.326
			c1.493,1.495,3.603,2.242,6.325,2.242s4.816-0.747,6.285-2.242c1.468-1.494,2.202-3.603,2.202-6.326v-6.486h-9.929v-8.647h20.018
			v15.133c0,3.523-0.774,6.58-2.321,9.168c-1.549,2.59-3.711,4.592-6.486,6.005C171.993,60.986,168.736,61.694,165.001,61.694z"/>
		<path fill="#F6F6F6" d="M193.104,60.893V2.44h35.072v8.808h-25.223v15.214h22.42v8.488h-22.42v17.135h25.223v8.808H193.104z"/>
		<path fill="#F6F6F6" d="M255.32,61.694c-3.791,0-7.074-0.721-9.849-2.162c-2.776-1.441-4.925-3.469-6.446-6.085
			c-1.521-2.615-2.281-5.685-2.281-9.208V19.095c0-3.523,0.76-6.592,2.281-9.208c1.521-2.615,3.67-4.644,6.446-6.085
			c2.774-1.441,6.058-2.162,9.849-2.162c3.79,0,7.072,0.72,9.849,2.162c2.775,1.441,4.925,3.471,6.446,6.085
			c1.521,2.616,2.281,5.686,2.281,9.208v25.143c0,3.523-0.76,6.594-2.281,9.208c-1.521,2.616-3.671,4.644-6.446,6.085
			C262.392,60.973,259.11,61.694,255.32,61.694z M255.32,53.046c2.775,0,4.99-0.801,6.646-2.402
			c1.654-1.601,2.482-3.736,2.482-6.406V19.095c0-2.668-0.814-4.804-2.442-6.406c-1.629-1.602-3.856-2.402-6.686-2.402
			c-2.83,0-5.059,0.801-6.686,2.402c-1.629,1.602-2.442,3.737-2.442,6.406v25.143c0,2.67,0.827,4.805,2.482,6.406
			C250.328,52.245,252.544,53.046,255.32,53.046z M255.32,36.471c-1.602,0-2.883-0.44-3.844-1.321s-1.441-2.122-1.441-3.724
			c0-1.601,0.48-2.815,1.441-3.643c0.961-0.827,2.242-1.241,3.844-1.241c1.602,0,2.883,0.414,3.844,1.241
			c0.961,0.828,1.441,2.042,1.441,3.643c0,1.602-0.48,2.843-1.441,3.724S256.922,36.471,255.32,36.471z"/>
	</g>
</g>
</svg>
